<?xml version="1.0" encoding="utf-8"?>
<!-- Generator: Adobe Illustrator 18.0.0, SVG Export Plug-In . SVG Version: 6.00 Build 0)  -->
<!DOCTYPE svg PUBLIC "-//W3C//DTD SVG 1.1//EN" "http://www.w3.org/Graphics/SVG/1.1/DTD/svg11.dtd">
<svg version="1.1" id="Layer_1" xmlns="http://www.w3.org/2000/svg" xmlns:xlink="http://www.w3.org/1999/xlink" x="0px" y="0px"
	 viewBox="-4.7 -51.2 964.7 611.2" enable-background="new -4.7 -51.2 964.7 611.2" xml:space="preserve">
<g>
	<path d="M377.7,402.8c0,83.2-64.3,139.7-159.9,139.7h-124V263.6h126.9C314.2,263.6,377.7,320.1,377.7,402.8z M299.1,403.6
		c0-48.1-33.3-80.7-79.9-80.7h-48.3v160.8h52C267.6,483.5,299.1,451.4,299.1,403.6z"/>
</g>
<g>
	<path d="M662.2,261.8l69.1,163.7l69.1-163.7h74.4v280.7h-60.2l-0.3-177.8l-60.6,149.7h-44.6l-60.6-149.7v177.8h-60.9V261.8H662.2z"
		/>
</g>
<g id="layer1">
	<path id="path2417" d="M473.2,282.4c-3.6-3.9-12.3-11.6-19.4-17c-21.3-16-24.2-18.4-32.9-26.4c-15.8-14.7-22.7-29.5-22.7-49.4
		c0-9.7,0.7-13.5,3.4-19.3c4.6-9.7,11.4-17,20.1-21.5c6.1-3.1,9.2-4.6,19.6-4.6c10.7,0,13.1,1.2,19.4,4.8
		c7.7,4.3,15.7,13.3,17.4,19.8l1,3.9l2.6-5.5c14.1-31,59.3-30.5,75.1,0.9c4.9,9.9,5.6,31.2,1.2,43.1c-5.8,15.5-16.7,27.4-41.7,45.7
		c-16.4,11.9-35.1,30-36.3,32.5C478.5,292.4,479.8,289.9,473.2,282.4z"/>
	<g id="g2221" transform="translate(129.28571,-64.285714)">
	</g>
</g>
<rect x="455.4" y="335.8" width="48.4" height="206.7"/>
<polygon points="32.6,241.9 490.1,30.1 478.5,4.6 21,216.5 "/>
<polygon points="924.5,241.9 467,30.1 478.6,4.6 936.1,216.5 "/>
</svg>
